<?xml version="1.0" standalone="no"?>
<!DOCTYPE svg PUBLIC "-//W3C//DTD SVG 20010904//EN" "http://www.w3.org/TR/2001/REC-SVG-20010904/DTD/svg10.dtd">
<svg version="1.0" xmlns="http://www.w3.org/2000/svg" width="787.000000pt" height="384.000000pt" viewBox="0 0 787.000000 384.000000" preserveAspectRatio="xMidYMid meet">

    <g transform="translate(0.000000,384.000000) scale(0.100000,-0.100000)" fill="#000000" stroke="none">
        <path d="M3865 3634 c-212 -46 -418 -207 -514 -400 -154 -313 -77 -689 188
-910 89 -74 225 -140 332 -160 113 -22 287 -14 384 16 140 43 275 134 362 243
69 85 96 136 134 247 30 88 33 105 33 225 0 108 -3 143 -23 205 -42 136 -96
225 -196 325 -98 99 -188 154 -320 195 -94 29 -281 36 -380 14z m365 -44 c280
-79 487 -323 518 -612 40 -375 -209 -714 -574 -784 -267 -51 -547 49 -709 253
-176 222 -206 523 -78 780 151 303 508 456 843 363z" />
        <path d="M3945 3584 c-11 -2 -45 -9 -75 -15 -30 -6 -95 -30 -145 -54 -355
-171 -491 -614 -294 -963 43 -75 177 -207 259 -255 96 -56 177 -78 306 -84 86
-4 129 -2 185 12 316 74 539 354 539 675 0 332 -234 611 -568 679 -51 11 -165
13 -207 5z m250 -50 c113 -29 202 -81 295 -174 136 -136 195 -274 194 -455 -1
-127 -15 -187 -71 -302 -64 -132 -154 -223 -283 -287 -121 -59 -215 -80 -335
-73 -250 15 -456 155 -560 382 -45 98 -59 164 -59 280 0 210 86 381 258 518
153 120 360 162 561 111z" />
        <path d="M4014 3517 c-10 -27 0 -72 16 -72 11 0 15 11 15 39 0 40 -20 61 -31
33z" />
        <path d="M3780 3473 c0 -22 26 -73 37 -73 15 0 17 19 3 54 -8 23 -40 38 -40
19z" />
        <path d="M4242 3447 c-15 -42 -15 -47 1 -47 15 0 49 64 40 74 -14 14 -30 4
-41 -27z" />
        <path d="M3880 3357 c-121 -41 -200 -105 -264 -211 -83 -139 -91 -312 -21
-460 25 -53 90 -136 106 -136 18 0 9 30 -19 62 -69 80 -102 173 -102 284 0
209 138 388 340 440 63 16 172 15 243 -2 20 -5 27 -3 27 9 0 40 -205 50 -310
14z" />
        <path d="M3584 3339 c-10 -17 53 -76 66 -63 8 8 3 20 -15 43 -29 33 -40 38
-51 20z" />
        <path d="M4263 3317 c-71 -75 -296 -364 -317 -406 -55 -107 -196 -443 -191
-452 4 -5 10 -9 14 -9 4 0 80 91 170 203 l163 202 84 190 c47 105 91 204 98
220 36 80 27 103 -21 52z m-76 -189 c-34 -75 -60 -101 -71 -72 -3 9 -3 21 1
29 13 21 98 123 101 120 1 -1 -13 -36 -31 -77z m-76 -118 c16 0 19 -4 13 -22
-15 -49 -59 -126 -107 -186 -41 -52 -52 -61 -59 -48 -5 9 -16 16 -23 16 -19 0
-20 -4 19 81 39 86 129 204 134 176 2 -9 12 -17 23 -17z" />
        <path d="M4004 2916 c-10 -26 4 -48 28 -44 17 2 23 10 23 28 0 18 -6 26 -23
28 -13 2 -25 -3 -28 -12z" />
        <path d="M4432 3327 c-25 -26 -29 -47 -9 -47 19 0 60 47 52 59 -9 16 -19 13
-43 -12z" />
        <path d="M4345 3247 c-6 -13 1 -28 22 -50 129 -137 149 -360 48 -532 -86 -148
-272 -238 -444 -214 -36 5 -72 11 -79 14 -8 3 -12 -1 -10 -12 4 -23 49 -34
143 -35 254 -4 460 180 489 438 14 117 -36 271 -119 361 -37 41 -44 45 -50 30z" />
        <path d="M3450 3137 c0 -16 41 -37 70 -37 29 0 24 17 -10 35 -36 19 -60 19
-60 2z" />
        <path d="M4563 3135 c-32 -13 -41 -29 -25 -39 13 -8 72 23 72 39 0 18 -6 18
-47 0z" />
        <path d="M3959 3032 c-45 -23 -79 -75 -79 -123 0 -28 4 -39 15 -39 10 0 15 10
15 28 0 37 33 88 70 107 16 8 30 20 30 25 0 18 -17 19 -51 2z" />
        <path d="M4147 2888 c-4 -32 -15 -51 -40 -74 -18 -17 -40 -34 -48 -36 -11 -4
-11 -8 -2 -18 9 -10 18 -9 45 7 46 27 78 78 78 124 0 55 -26 52 -33 -3z" />
        <path d="M3403 2898 c2 -8 21 -13 47 -13 26 0 45 5 48 13 2 8 -11 12 -48 12
-37 0 -50 -4 -47 -12z" />
        <path d="M4570 2894 c0 -12 9 -14 42 -12 59 4 63 28 4 28 -35 0 -46 -4 -46
-16z" />
        <path d="M3483 2693 c-30 -15 -46 -43 -24 -43 22 0 82 32 79 42 -6 18 -20 18
-55 1z" />
        <path d="M4526 2691 c-8 -13 16 -30 52 -37 41 -8 42 10 2 31 -33 17 -47 19
-54 6z" />
        <path d="M3607 2502 c-29 -30 -35 -52 -14 -52 19 0 70 57 63 69 -11 17 -20 13
-49 -17z" />
        <path d="M4404 2519 c-3 -6 7 -25 25 -42 24 -25 33 -29 43 -19 9 9 6 18 -17
42 -31 33 -40 36 -51 19z" />
        <path d="M3795 2380 c-19 -36 -19 -60 -1 -60 13 0 36 48 36 76 0 24 -19 15
-35 -16z" />
        <path d="M4225 2400 c-9 -15 23 -80 39 -80 20 0 20 11 -1 55 -17 36 -27 43
-38 25z" />
        <path d="M4014 2357 c-10 -28 0 -82 16 -82 11 0 15 12 15 44 0 44 -19 68 -31
38z" />
        <path d="M2487 1815 c-162 -33 -291 -127 -273 -201 8 -29 48 -41 84 -25 21 10
23 14 11 22 -12 8 -10 13 11 30 70 59 192 99 299 99 88 0 125 -15 129 -51 4
-34 -29 -74 -100 -120 -59 -38 -206 -104 -214 -96 -3 2 25 51 61 107 36 57 65
107 65 112 0 5 -19 8 -42 6 -37 -3 -47 -9 -78 -50 -42 -56 -187 -288 -259
-413 -55 -96 -62 -128 -32 -145 35 -18 49 -11 78 40 25 44 29 47 33 28 3 -14
22 -32 50 -45 137 -70 404 33 441 169 18 70 -36 139 -123 157 -30 6 -30 7 38
41 88 45 158 111 174 167 41 138 -119 214 -353 168z m-6 -436 c70 2 96 -1 133
-18 59 -26 62 -55 11 -100 -55 -48 -113 -73 -180 -78 -74 -6 -108 12 -87 46
11 19 10 21 -14 21 -14 0 -34 -5 -44 -10 -14 -8 -6 12 27 69 26 45 51 77 57
74 6 -4 50 -6 97 -4z" />
        <path d="M3891 1526 c-7 -8 -11 -30 -9 -49 3 -50 -51 -134 -149 -234 -126
-127 -132 -115 -38 71 69 136 78 171 45 181 -26 8 -67 -15 -118 -67 -30 -32
-41 -50 -36 -62 4 -11 14 -16 26 -13 11 3 18 2 16 -1 -37 -83 -58 -113 -106
-154 -80 -69 -131 -62 -99 13 8 19 43 77 76 129 47 72 61 102 59 125 -3 27 -7
30 -40 33 -45 4 -86 -16 -146 -71 l-45 -42 27 52 c14 29 26 55 26 58 0 3 -15
5 -33 5 -22 0 -41 -8 -54 -22 -25 -27 -213 -344 -213 -358 0 -6 12 -16 27 -23
25 -11 28 -9 72 43 66 79 243 260 265 272 22 12 20 9 -54 -110 -60 -94 -68
-186 -20 -212 34 -18 93 -11 132 15 44 30 44 30 51 6 20 -79 159 -9 292 146
103 121 150 234 113 271 -16 16 -53 15 -67 -2z" />
        <path d="M2945 1471 c-155 -89 -251 -298 -172 -371 49 -46 148 -10 247 90 75
77 130 174 130 232 0 33 -4 40 -27 49 -16 6 -36 15 -45 20 -32 17 -83 9 -133
-20z m109 -64 c32 -50 -175 -283 -224 -252 -44 27 43 182 139 246 49 32 68 34
85 6z" />
        <path d="M4115 1471 c-65 -37 -150 -128 -175 -186 -70 -162 0 -251 140 -180
100 50 228 212 237 299 6 46 -13 76 -47 76 -10 0 -22 5 -25 10 -12 20 -80 10
-130 -19z m109 -63 c32 -51 -176 -283 -225 -252 -21 13 -1 86 38 143 43 63
129 133 157 129 10 -2 24 -11 30 -20z" />
        <path d="M5403 1481 c-108 -39 -219 -138 -264 -236 -26 -57 -66 -95 -99 -95
-25 0 0 94 51 197 29 57 49 109 46 118 -8 19 -41 20 -59 1 -12 -11 -17 -11
-33 0 -80 59 -286 -75 -338 -219 -11 -30 -176 -191 -186 -181 -2 2 47 92 109
200 105 184 111 198 94 211 -10 7 -24 13 -31 13 -6 0 -38 -34 -69 -77 -88
-118 -233 -257 -251 -239 -3 3 25 66 63 140 59 115 66 136 55 150 -7 9 -19 16
-26 16 -12 0 -121 -177 -167 -272 -42 -86 -8 -153 66 -128 20 6 58 32 87 58
l51 46 -32 -65 c-18 -35 -56 -89 -85 -119 -65 -67 -98 -127 -93 -171 8 -78 74
-63 136 31 45 68 111 140 204 221 l56 50 26 -26 c46 -46 114 -29 197 51 l45
44 -4 -33 c-8 -73 76 -115 142 -72 18 12 30 14 39 8 43 -34 110 -14 192 58 27
24 45 37 40 29 -43 -75 -99 -145 -155 -197 -37 -34 -75 -78 -84 -97 -22 -47
-21 -93 3 -106 40 -21 58 -11 106 55 70 98 144 174 234 239 l82 58 23 -25 c65
-70 212 -52 322 40 25 21 37 62 25 82 -7 11 -22 5 -70 -32 -71 -53 -119 -71
-166 -63 -73 14 -41 68 73 122 43 20 53 29 50 47 -3 20 -8 22 -55 19 -29 -1
-53 1 -53 6 0 5 25 27 55 48 53 36 56 37 69 18 12 -15 19 -17 42 -9 15 6 36
23 48 38 66 89 -129 84 -231 -6 -20 -18 -42 -47 -50 -65 -12 -29 -12 -37 1
-63 l14 -29 -65 -32 c-36 -18 -92 -55 -125 -81 -33 -27 -62 -47 -64 -45 -4 5
122 214 186 308 22 33 38 65 35 70 -8 13 -68 13 -82 -1 -8 -8 -13 -8 -17 0
-10 16 -54 13 -113 -8z m66 -73 c-34 -47 -201 -210 -238 -231 l-31 -18 0 24
c0 67 135 204 239 242 52 20 55 18 30 -17z m-484 -62 c-56 -75 -178 -186 -203
-186 -33 0 25 115 90 177 42 40 116 83 146 83 20 0 17 -7 -33 -74z" />
        <path d="M3462 578 c-7 -7 -12 -18 -12 -25 0 -7 -6 -13 -12 -13 -10 0 -10 -2
-1 -8 6 -4 13 -30 16 -57 l3 -50 2 52 c2 40 6 53 20 56 16 4 16 5 0 6 -10 0
-18 5 -18 10 0 13 26 32 33 24 4 -3 7 -1 7 5 0 16 -23 15 -38 0z" />
        <path d="M3791 563 c0 -12 -7 -24 -13 -26 -10 -4 -10 -6 0 -6 8 -1 12 -18 12
-51 0 -48 1 -50 28 -49 26 0 26 1 5 9 -19 8 -23 17 -23 49 0 29 5 41 18 44 15
4 15 5 0 6 -9 0 -19 11 -21 24 -4 22 -4 22 -6 0z" />
        <path d="M3933 555 c-6 -14 -7 -25 -2 -25 5 0 9 -22 9 -50 0 -46 2 -50 23 -49
16 1 18 2 5 6 -14 3 -18 15 -18 49 0 28 4 44 13 44 8 0 9 2 1 8 -7 4 -13 15
-15 24 -3 15 -6 13 -16 -7z" />
        <path d="M4479 560 c-2 -14 -2 -47 1 -75 4 -45 8 -50 30 -52 14 -2 19 0 10 4
-22 9 -30 24 -30 61 0 23 4 32 17 32 15 0 15 1 1 13 -9 6 -18 19 -20 27 -3 9
-6 6 -9 -10z" />
        <path d="M4781 563 c0 -12 -7 -24 -13 -26 -10 -4 -10 -6 0 -6 8 -1 12 -18 12
-51 0 -46 2 -50 23 -49 16 1 18 2 5 6 -14 3 -18 15 -18 48 0 33 4 45 18 48 15
4 15 5 0 6 -9 0 -19 11 -21 24 -4 22 -4 22 -6 0z" />
        <path d="M5030 505 c0 -79 17 -104 22 -34 2 26 9 46 20 53 24 15 36 0 47 -55
l9 -44 1 45 c1 60 -9 74 -48 67 -28 -6 -31 -4 -31 18 0 14 -4 25 -10 25 -6 0
-10 -32 -10 -75z" />
        <path d="M5533 530 c0 -30 2 -43 4 -27 2 15 2 39 0 55 -2 15 -4 2 -4 -28z" />
        <path d="M2530 515 c5 -14 17 -39 25 -56 15 -28 15 -33 0 -56 -13 -19 -13 -24
-4 -21 16 5 83 158 69 158 -4 0 -14 -17 -20 -37 -19 -57 -26 -59 -46 -9 -20
47 -41 66 -24 21z" />
        <path d="M2666 524 c-34 -33 -12 -94 34 -94 34 0 60 23 60 54 0 47 -62 73 -94
40z m68 -15 c15 -22 11 -48 -8 -61 -37 -26 -79 19 -57 61 15 27 46 27 65 0z" />
        <path d="M2790 504 c0 -19 5 -44 10 -55 12 -21 54 -26 66 -8 4 8 9 7 15 -2 5
-9 8 9 8 46 -1 58 -2 59 -8 17 -8 -49 -21 -65 -47 -60 -15 2 -20 14 -22 51 -4
55 -22 64 -22 11z" />
        <path d="M2930 488 c0 -32 4 -58 10 -58 6 0 10 18 10 39 0 30 6 44 22 55 18
13 19 16 6 16 -9 0 -20 -5 -24 -11 -4 -8 -9 -7 -15 2 -5 9 -9 -8 -9 -43z" />
        <path d="M3082 455 c0 -44 3 -66 5 -48 4 29 6 31 37 26 37 -6 59 13 59 52 0
39 -21 56 -64 53 l-39 -3 2 -80z m78 61 c28 -35 -11 -93 -47 -70 -36 22 -23
84 17 84 10 0 23 -7 30 -14z" />
        <path d="M3223 514 c-15 -24 -15 -29 -2 -53 11 -20 22 -26 49 -26 19 0 35 6
38 13 3 11 1 11 -17 0 -15 -9 -26 -10 -38 -2 -34 21 -26 34 21 34 38 0 46 3
46 18 0 47 -69 59 -97 16z m75 4 c21 -21 13 -28 -28 -28 -22 0 -40 4 -40 8 0
14 23 32 40 32 9 0 21 -5 28 -12z" />
        <path d="M3362 485 c1 -45 2 -50 5 -20 3 26 12 46 26 57 12 10 17 18 10 18 -6
0 -15 -5 -19 -11 -4 -8 -9 -7 -15 2 -5 9 -8 -9 -7 -46z" />
        <path d="M3527 522 c-37 -40 -8 -95 46 -90 17 2 33 10 35 18 4 13 3 13 -11 2
-21 -18 -61 -11 -65 11 -3 14 4 17 42 17 47 0 54 7 36 41 -14 25 -61 25 -83 1z
m71 -4 c21 -21 13 -28 -28 -28 -38 0 -52 14 -33 33 11 11 48 8 61 -5z" />
        <path d="M3658 515 c-14 -32 0 -78 25 -83 27 -5 67 7 67 20 0 9 -3 9 -12 0
-20 -20 -57 -14 -69 12 -21 46 25 87 60 54 11 -11 13 -10 9 2 -3 8 -19 16 -36
18 -26 3 -34 -1 -44 -23z" />
        <path d="M4010 488 c0 -32 4 -58 10 -58 6 0 10 18 10 39 0 30 6 44 22 55 18
13 19 16 6 16 -9 0 -20 -5 -24 -11 -4 -8 -9 -7 -15 2 -5 9 -9 -8 -9 -43z" />
        <path d="M4103 485 c0 -33 2 -45 4 -27 2 18 2 45 0 60 -2 15 -4 0 -4 -33z" />
        <path d="M4150 458 c0 -45 4 -78 10 -78 6 0 10 13 10 28 0 26 3 28 30 24 37
-5 60 12 60 45 0 47 -17 63 -65 61 l-45 -1 0 -79z m91 51 c23 -44 -25 -91 -59
-57 -16 16 -15 65 1 71 26 11 47 6 58 -14z" />
        <path d="M4367 533 c-18 -18 -5 -42 29 -53 45 -15 39 -35 -10 -34 -24 1 -34
-2 -28 -8 5 -5 25 -8 43 -6 26 2 35 8 37 25 2 17 -4 24 -33 33 -43 14 -41 35
3 35 16 0 28 3 25 7 -5 10 -57 10 -66 1z" />
        <path d="M4566 532 c-3 -5 8 -6 24 -4 22 3 32 -1 36 -13 4 -9 1 -20 -6 -25
-10 -6 -10 -8 1 -12 22 -7 2 -38 -25 -38 -33 0 -44 20 -20 37 19 14 19 15 -1
11 -14 -2 -20 -11 -20 -28 0 -23 4 -25 46 -26 l47 -2 -5 42 c-3 22 -6 47 -9
54 -4 13 -60 17 -68 4z" />
        <path d="M4689 503 c-3 -23 -1 -50 3 -60 4 -12 7 -3 7 24 1 32 6 45 22 53 11
7 18 14 15 17 -3 3 -12 1 -20 -6 -11 -9 -15 -9 -19 1 -2 7 -6 -6 -8 -29z" />
        <path d="M4857 533 c-18 -17 -5 -43 25 -51 20 -5 34 -16 36 -26 3 -16 -2 -18
-32 -14 -21 2 -32 0 -27 -5 5 -5 21 -7 37 -5 21 2 30 9 32 25 2 17 -4 24 -33
33 -43 14 -41 35 3 35 16 0 28 3 25 7 -5 10 -57 10 -66 1z" />
        <path d="M5177 522 c-22 -25 -21 -55 2 -76 23 -21 72 -18 79 4 4 12 2 13 -9 3
-18 -18 -56 -16 -63 3 -9 24 -9 24 39 24 37 0 45 3 45 18 0 42 -63 58 -93 24z
m71 -4 c21 -21 13 -28 -28 -28 -28 0 -40 4 -40 14 0 25 48 34 68 14z" />
        <path d="M5312 485 c1 -45 2 -50 5 -20 3 26 12 46 26 57 12 10 17 18 10 18 -6
0 -15 -5 -19 -11 -4 -8 -9 -7 -15 2 -5 9 -8 -9 -7 -46z" />
        <path d="M5396 524 c-19 -19 -21 -54 -3 -78 16 -22 78 -19 85 4 4 12 2 13 -9
3 -20 -19 -57 -15 -69 7 -10 19 -8 20 40 20 37 0 50 4 50 14 0 22 -29 46 -55
46 -13 0 -31 -7 -39 -16z m74 -14 c10 -19 8 -20 -35 -20 -43 0 -45 1 -35 20 6
12 21 20 35 20 14 0 29 -8 35 -20z" />
    </g>
</svg>
