<svg xmlns="http://www.w3.org/2000/svg" width="122px" height="38px" viewBox="0 0 122 38" version="1.1">
<g id="NEW-Landing-Page" stroke="none" stroke-width="1" fill="none" fill-rule="evenodd">
<g id="New-Landing-Page-v2" transform="translate(-36.000000, -23.000000)" fill="#120d60">
<path d="M109.335035,38.2348419 C113.046063,38.2348419 116.243872,41.3121668 116.243872,45.9584413 C116.243872,50.4835666 113.046063,53.6520863 109.153976,53.6520863 C106.921368,53.6520863 105.352418,52.5956912 104.387218,51.3895236 L104.296689,51.3895236 L104.296689,60.2287614 L100.977731,60.2287614 L100.977731,38.6868219 L104.266735,38.6868219 L104.266735,40.5273591 L104.357264,40.5273591 C105.291844,39.4416751 106.710355,38.2348419 109.335035,38.2348419 Z M44.2080817,23 L44.3478867,23.5211279 C43.0780307,24.062674 42.1876451,25.321177 42.1876451,26.7875744 C42.1876451,31.8972266 54.4853693,34.7358192 57,36.6031555 L57,36.6031555 L56.3599628,38.238467 C54.8862053,38.238467 51.8179285,38.6134192 51.8179285,45.1045477 C51.8179285,51.3478736 49.9865304,56.5934924 49.8337204,57 L49.8337204,57 L48.8309336,56.7317792 C48.854157,56.5962767 49.014863,55.1127095 49.014863,53.3121963 C49.014863,50.3148987 47.9540176,46.4391549 44.0603809,46.4391549 C40.1653507,46.4391549 39.2596377,50.3162909 39.2596377,53.3121963 C39.2596377,55.1373041 39.6326057,56.6357209 39.6521133,56.7317792 L39.6521133,56.7317792 L38.649791,57 C36.7022759,54.3094393 36,47.8874543 36,44.9221761 C36,41.3772998 36.6665118,38.7377846 36.824431,38.2533166 L36.824431,38.2533166 L37.5206688,38.4394006 C37.8509057,40.7874925 40.8806317,41.9360157 44.0603809,41.9360157 C47.2345564,41.9360157 49.1337668,40.484468 49.1337668,37.8365999 C49.1337668,34.5061145 40.6553646,33.0824098 40.6553646,27.1991865 C40.6553646,23.9842496 44.1467719,23.0167058 44.2080817,23 L44.2080817,23 Z M125.262703,38.2344425 C127.67637,38.2344425 129.124836,39.5018504 130.000173,40.648109 L130.060082,40.648109 L130.060082,38.6870882 L133.348419,38.6870882 L133.348419,53.1391322 L130.060082,53.1391322 L130.060082,51.2985951 L129.969553,51.2985951 C128.973732,52.5353828 127.404782,53.6516869 125.021736,53.6516869 C121.762687,53.6516869 118.082279,51.0576278 118.082279,45.898133 C118.082279,41.312433 121.340662,38.2344425 125.262703,38.2344425 Z M149.849218,38.2344425 C152.262884,38.2344425 153.71135,39.5018504 154.586687,40.648109 L154.646596,40.648109 L154.646596,38.6870882 L157.934933,38.6870882 L157.934933,53.1391322 L154.646596,53.1391322 L154.646596,51.2985951 L154.556067,51.2985951 C153.560246,52.5353828 151.991297,53.6516869 149.60825,53.6516869 C146.349202,53.6516869 142.668793,51.0576278 142.668793,45.898133 C142.668793,41.312433 145.927176,38.2344425 149.849218,38.2344425 Z M92.1813616,38.2044215 C95.4696992,38.2044215 97.6423984,40.4976043 97.6423984,44.8117168 L97.6423984,53.1390657 L94.2934862,53.1390657 L94.2934862,44.7810967 C94.2934862,42.8806506 93.4181494,41.1918828 91.396554,41.1918828 C89.7370751,41.1918828 88.168791,42.458625 88.168791,45.2643625 L88.168791,53.1390657 L84.7892586,53.1390657 L84.7892586,44.7810967 C84.7892586,42.7601669 83.702909,41.1918828 81.9229465,41.1918828 C79.9319713,41.1918828 78.6652291,42.6995923 78.6652291,45.2643625 L78.6652291,53.1390657 L75.2856967,53.1390657 L75.2856967,38.6870216 L78.634609,38.6870216 L78.634609,40.4976043 L78.6951836,40.4976043 C79.5998093,39.2002419 81.0782299,38.2044215 82.918767,38.2044215 C85.1214207,38.2044215 86.810854,39.5017838 87.3540288,40.9795388 C88.0782619,39.6229331 89.8582244,38.2044215 92.1813616,38.2044215 Z M140.14303,31.4158016 L140.14303,53.139465 L136.763498,53.139465 L136.763498,31.4158016 L140.14303,31.4158016 Z M71.896712,38.6867554 L71.896712,53.1387994 L68.5171797,53.1387994 L68.5171797,38.6867554 L71.896712,38.6867554 Z M108.399789,41.1916831 C106.046697,41.1916831 104.145585,43.0921293 104.145585,45.9883958 C104.145585,48.7941333 106.106606,50.7251995 108.429743,50.7251995 C111.32601,50.7251995 112.774476,48.3115331 112.774476,45.9284869 C112.774476,43.5148204 111.355964,41.1916831 108.399789,41.1916831 Z M125.956982,41.1313748 C122.970186,41.1313748 121.551675,43.5450412 121.551675,45.898133 C121.551675,48.3117994 122.939566,50.6948457 125.927028,50.6948457 C128.159636,50.6948457 130.211186,48.7637794 130.211186,45.9886621 C130.211186,43.062441 128.310074,41.1313748 125.956982,41.1313748 Z M150.543496,41.1313748 C147.5567,41.1313748 146.138189,43.5450412 146.138189,45.898133 C146.138189,48.3117994 147.52608,50.6948457 150.513542,50.6948457 C152.74615,50.6948457 154.7977,48.7637794 154.7977,45.9886621 C154.7977,43.062441 152.896588,41.1313748 150.543496,41.1313748 Z M72.0771047,32.0495056 L72.0771047,35.4889469 L68.3361214,35.4889469 L68.3361214,32.0495056 L72.0771047,32.0495056 Z" id="Combined-Shape-Copy">
</path>
</g>
</g>
</svg>